<svg width="30" height="30" viewBox="0 0 30 30" fill="none" xmlns="http://www.w3.org/2000/svg">
<g clip-path="url(#clip0_35_2)">
<path d="M3.99856 0.0210571C1.7954 0.0210571 0.00161311 1.81449 0 4.01939C0 6.22429 1.79378 8.01807 3.99856 8.01807C6.20254 8.01807 7.9954 6.22429 7.9954 4.01939C7.9954 1.81472 6.20242 0.0210571 3.99856 0.0210571Z" fill="white"/>
<path d="M6.99953 9.62463H0.997129C0.711608 9.62463 0.480011 9.85612 0.480011 10.1419V29.4618C0.480011 29.7474 0.711608 29.9789 0.997129 29.9789H6.99941C7.28505 29.9789 7.51664 29.7473 7.51664 29.4618V10.1419C7.51676 9.856 7.28516 9.62463 6.99953 9.62463Z" fill="white"/>
<path d="M22.3444 9.39716C20.1478 9.39716 18.2174 10.066 17.0395 11.1567V10.1418C17.0395 9.85609 16.8079 9.6246 16.5223 9.6246H10.7645C10.4789 9.6246 10.2473 9.85609 10.2473 10.1418V29.4618C10.2473 29.7474 10.4789 29.9789 10.7645 29.9789H16.7612C17.0468 29.9789 17.2784 29.7473 17.2784 29.4618V19.9033C17.2784 17.1607 17.7828 15.4609 20.3003 15.4609C22.7806 15.4638 22.9662 17.2867 22.9662 20.0671V29.4618C22.9662 29.7474 23.1978 29.9789 23.4836 29.9789H29.483C29.7685 29.9789 30.0001 29.7473 30.0001 29.4618V18.8639C30 14.4563 29.1298 9.39716 22.3444 9.39716Z" fill="white"/>
</g>
<defs>
<clipPath id="clip0_35_2">
<rect width="30" height="30" fill="white"/>
</clipPath>
</defs>
</svg>
